<?xml version="1.0" encoding="UTF-8"?>
<svg xmlns="http://www.w3.org/2000/svg" viewBox="0 0 24 24"><path d="M18.38 5.62A8.88 8.88 0 0 0 12.06 3a9 9 0 0 0-9 8.92 8.8 8.8 0 0 0 1.24 4.5L3 21l4.75-1.24A8.9 8.9 0 0 0 12 20.84a9 9 0 0 0 9-8.91 8.8 8.8 0 0 0-2.62-6.28zM12 19.34a7.53 7.53 0 0 1-3.83-1.05L8 18.15l-2.82.73.76-2.73-.18-.28a7.3 7.3 0 0 1-1.14-3.94 7.45 7.45 0 0 1 14.9 0A7.45 7.45 0 0 1 12 19.34m4.09-5.55c-.23-.12-1.33-.65-1.53-.73s-.36-.11-.51.11-.58.73-.71.87-.26.17-.48.06a6.1 6.1 0 0 1-1.77-1.1 6.9 6.9 0 0 1-1.24-1.54A.32.32 0 0 1 10 11q.175-.186.33-.39.138-.17.23-.37a.44.44 0 0 0 0-.39c-.06-.11-.51-1.21-.69-1.66s-.37-.37-.51-.38h-.49a.85.85 0 0 0-.6.28 2.5 2.5 0 0 0-.79 1.86 4.35 4.35 0 0 0 .92 2.31 10 10 0 0 0 3.82 3.36q.583.256 1.19.45a3.1 3.1 0 0 0 1.54.11 2.3 2.3 0 0 0 1.49-1.06 1.78 1.78 0 0 0 .11-1.12c-.05-.09-.2-.14-.42-.26z" style="fill: #000000;"/></svg>
